<svg xmlns="http://www.w3.org/2000/svg" version="1.0" viewBox="0 0 800 350"><path d="M 502.49151,190.69847 C 488.9006,190.69855 477.32083,194.52072 467.68719,202.17438 C 458.05349,209.82818 451.65239,220.31418 448.50191,233.59288 C 445.36013,246.83478 446.78879,257.30667 452.79061,264.96038 C 458.79241,272.6141 468.5585,276.43627 482.14939,276.43629 C 487.44136,276.43629 492.65262,275.775 497.71854,274.44713 C 502.78429,273.11925 507.73172,271.0844 512.61154,268.42865 L 515.37063,256.79973 C 510.44985,260.30386 505.49175,262.92074 500.45001,264.65435 C 495.4081,266.38797 490.30446,267.25556 485.09266,267.25556 C 474.82931,267.25556 467.61772,264.35745 463.535,258.58487 C 459.45218,252.81232 458.72222,244.47411 461.30393,233.59288 C 463.89433,222.67485 468.58424,214.32252 475.40626,208.54989 C 482.22819,202.77739 490.81499,199.87927 501.07834,199.8792 C 506.29011,199.87927 510.98207,200.74686 515.20136,202.48041 C 519.42046,204.21409 523.13682,206.83098 526.39481,210.33503 L 529.19019,198.5531 C 525.64196,195.93431 521.65881,193.99714 517.21877,192.68763 C 512.77857,191.37827 507.86363,190.69855 502.49151,190.69847 z M 602.71447,190.69847 C 590.08576,190.69855 579.04616,194.6141 569.64689,202.3784 C 560.24753,210.14285 554.01606,220.53549 550.91805,233.59288 C 547.82004,246.65034 549.11564,257.06144 554.83502,264.80736 C 560.55436,272.5533 569.74367,276.43627 582.37236,276.43629 C 594.96088,276.43629 605.95856,272.52074 615.33794,264.75636 C 624.71712,256.99199 630.9653,246.61347 634.05466,233.59288 C 637.15258,220.53549 635.83253,210.14285 630.1377,202.3784 C 624.44266,194.6141 615.30299,190.69855 602.71447,190.69847 z M 63.442601,192.22859 L 43.85076,274.80416 L 101.68936,274.80416 L 103.91598,265.41941 L 58.216342,265.41941 L 65.319746,235.48003 L 108.11215,235.48003 L 110.33877,226.09529 L 67.546363,226.09529 L 73.35495,201.61334 L 117.9835,201.61334 L 120.21011,192.22859 L 63.442601,192.22859 z M 157.54507,192.22859 L 145.31076,243.79369 C 142.75534,254.56426 143.75888,262.67771 148.24809,268.17363 C 152.73724,273.66955 160.64792,276.43627 171.99373,276.43629 C 183.29935,276.43629 192.46097,273.66957 199.55817,268.17363 C 206.65521,262.67771 211.50874,254.56426 214.06423,243.79369 L 226.29854,192.22859 L 214.05757,192.22859 L 202.14999,242.41658 C 200.04957,251.26911 196.83287,257.6007 192.42173,261.4921 C 188.01046,265.38352 181.92534,267.35757 174.14775,267.35757 C 166.32995,267.35757 161.11963,265.38352 158.55504,261.4921 C 155.99036,257.6007 155.72709,251.26911 157.82747,242.41658 L 169.73504,192.22859 L 157.54507,192.22859 z M 266.94877,192.22859 L 247.35693,274.80416 L 259.5469,274.80416 L 267.42478,241.60052 L 281.80793,241.60052 L 302.54027,274.80416 L 315.70408,274.80416 L 294.15001,240.52943 C 299.09767,239.51841 303.35034,237.82145 306.95015,235.37802 C 313.09068,231.21001 317.16133,225.01527 319.0955,216.86355 C 321.01198,208.7857 319.85762,202.68865 315.69931,198.50209 C 311.54083,194.31566 304.45174,192.22868 294.38895,192.22859 L 266.94877,192.22859 z M 369.05889,192.22859 L 349.46705,274.80416 L 407.30565,274.80416 L 409.53227,265.41941 L 363.83263,265.41941 L 370.93604,235.48003 L 413.67743,235.48003 L 415.90405,226.09529 L 373.16265,226.09529 L 378.97124,201.61334 L 423.59979,201.61334 L 425.8264,192.22859 L 369.05889,192.22859 z M 677.83744,192.22859 L 658.2456,274.80416 L 670.02754,274.80416 L 687.23544,202.27639 L 696.94686,258.9419 L 709.13683,258.9419 L 745.73709,202.27639 L 728.52919,274.80416 L 740.36213,274.80416 L 759.95397,192.22859 L 741.89853,192.22859 L 705.50917,248.43506 L 695.94388,192.22859 L 677.83744,192.22859 z M 600.56045,199.77719 C 609.3804,199.77726 615.65253,202.80677 619.36912,208.85592 C 623.08549,214.90518 623.6782,223.15435 621.20164,233.59288 C 618.73365,243.99461 614.22987,252.22965 607.64305,258.27884 C 601.05605,264.32806 593.34638,267.35757 584.52638,267.35757 C 575.7063,267.35757 569.42325,264.32807 565.66671,258.27884 C 561.91014,252.22965 561.25214,243.99461 563.72007,233.59288 C 566.19668,223.15435 570.76573,214.90518 577.39278,208.85592 C 584.01975,202.80677 591.74039,199.77726 600.56045,199.77719 z M 276.96052,201.40932 L 292.21073,201.40932 C 297.8635,201.40939 301.91454,202.74607 304.36279,205.43864 C 306.81088,208.13135 307.4661,211.92096 306.29348,216.86355 C 305.11198,221.84313 302.64303,225.69788 298.91725,228.39047 C 295.19133,231.08314 290.50599,232.41984 284.8532,232.41979 L 269.60299,232.41979 L 276.96052,201.40932 z" style="text-align:start;line-height:100%;-inkscape-font-specification:DejaVu Sans" font-size="72.37983704px" font-weight="400" fill="#fff" font-family="DejaVu Sans"/><path d="M 54.535783,297.47915 C 54.161208,297.22983 53.575366,297.00676 52.778252,296.80995 C 51.9811,296.61318 51.005862,296.50924 49.852524,296.49813 C 47.661211,296.52734 45.782836,297.03655 44.217395,298.02573 C 42.651935,299.01495 41.658812,300.30897 41.238024,301.90779 C 40.910355,303.36942 41.194313,304.58052 42.089902,305.54109 C 42.985476,306.50169 44.334873,307.27133 46.138099,307.85001 C 47.707393,308.42404 48.779209,309.09791 49.353544,309.87162 C 49.927846,310.64536 50.069688,311.60654 49.779067,312.75515 C 49.460045,314.02172 48.712262,315.03427 47.535719,315.79282 C 46.359152,316.55137 44.867722,316.94028 43.061429,316.95954 C 42.036762,316.95312 41.09447,316.82582 40.234548,316.57764 C 39.374617,316.32947 38.645175,315.99896 38.046229,315.58611 L 37.006941,317.04364 C 37.565117,317.44421 38.350055,317.77122 39.361763,318.02466 C 40.373465,318.27809 41.435163,318.4089 42.546862,318.41707 C 45.154454,318.37561 47.261687,317.80685 48.868574,316.71078 C 50.475429,315.61472 51.481103,314.24011 51.8856,312.58696 C 52.252322,311.04244 52.030961,309.78696 51.221521,308.82053 C 50.412051,307.85411 49.079434,307.02607 47.223664,306.33642 C 45.650219,305.74548 44.539147,305.09848 43.890449,304.3954 C 43.241736,303.69233 43.055583,302.77904 43.331985,301.65553 C 43.519864,300.77787 44.100522,299.95451 45.073961,299.18544 C 46.047383,298.41641 47.479645,298.00648 49.370751,297.95566 C 50.423895,297.97144 51.29931,298.08706 51.996997,298.30251 C 52.694648,298.51801 53.192234,298.73874 53.489755,298.96471 L 54.535783,297.47915 z M 97.172425,302.58049 C 94.901574,302.59101 92.802527,303.28475 90.875327,304.66167 C 88.948082,306.03862 87.63417,308.03571 86.933571,310.65294 C 86.399356,313.08682 86.716795,314.98815 87.885872,316.3569 C 89.054946,317.72568 90.801916,318.42174 93.126795,318.4451 C 95.177019,318.46262 97.206551,317.82495 99.215369,316.53209 C 101.22416,315.23924 102.61851,313.18609 103.39845,310.37265 C 103.92815,308.03688 103.6395,306.16359 102.53249,304.75276 C 101.42543,303.34197 99.638751,302.61788 97.172425,302.58049 L 97.172425,302.58049 z M 101.31214,310.45674 C 100.81689,312.36215 99.850426,313.92595 98.412736,315.14814 C 96.975006,316.37035 95.347266,317.00218 93.529478,317.04364 C 91.766364,316.99984 90.471503,316.37267 89.644926,315.16217 C 88.818334,313.95165 88.609992,312.42054 89.019881,310.56885 C 89.407585,308.90871 90.257451,307.41498 91.569455,306.08767 C 92.881439,304.76037 94.614862,304.05846 96.769723,303.98195 C 98.211288,304.01053 99.299458,304.36452 100.03426,305.04396 C 100.76903,305.72342 101.22441,306.55704 101.4004,307.5448 C 101.57636,308.53258 101.54694,309.50322 101.31214,310.45674 L 101.31214,310.45674 z M 139.1746,305.69174 L 139.67137,302.94487 L 137.80205,302.94487 C 137.66948,303.63803 137.52228,304.37496 137.36045,305.15569 C 137.19861,305.93644 137.00299,306.8065 136.77358,307.76592 L 132.78222,324.35929 L 134.8155,324.35929 L 136.8786,315.78231 L 136.94418,315.78231 C 137.32946,316.62904 137.97015,317.28305 138.86626,317.74436 C 139.76238,318.20568 140.83214,318.43925 142.07559,318.4451 C 144.16661,318.45211 146.14276,317.7864 148.00401,316.448 C 149.86524,315.10962 151.16668,313.05647 151.90834,310.28856 C 152.42789,307.98082 152.18201,306.12855 151.17068,304.73175 C 150.15934,303.33496 148.54177,302.61788 146.31799,302.58049 C 144.83915,302.58752 143.50535,302.86079 142.31656,303.40035 C 141.12777,303.93993 140.10233,304.70373 139.2402,305.69174 L 139.1746,305.69174 z M 138.46976,309.16738 C 138.75245,308.02053 139.51792,306.89468 140.76615,305.78986 C 142.01437,304.68505 143.5864,304.09175 145.48221,304.00998 C 147.37929,304.06489 148.68472,304.70489 149.3985,305.93 C 150.11222,307.15512 150.26433,308.63601 149.85483,310.37265 C 149.3673,312.35398 148.45638,313.94815 147.12209,315.15515 C 145.78777,316.36216 144.14369,316.98232 142.18987,317.01561 C 140.51677,316.97531 139.28521,316.48831 138.49524,315.55457 C 137.70524,314.62085 137.45851,313.48216 137.75509,312.1385 L 138.46976,309.16738 z M 199.54584,308.88709 C 199.93755,307.08856 199.87514,305.73381 199.35863,304.82285 C 198.84207,303.9119 198.15046,303.30459 197.28381,303.00093 C 196.41712,302.69729 195.65443,302.55715 194.99577,302.58049 C 193.72019,302.60036 192.49617,302.88299 191.32376,303.42838 C 190.15133,303.97379 189.2067,304.66285 188.4899,305.49554 L 188.4243,305.49554 L 190.77731,295.71331 L 188.74404,295.71331 L 183.35704,318.10875 L 185.39032,318.10875 L 187.63547,308.77498 C 187.70226,308.48594 187.77744,308.23017 187.86102,308.00767 C 187.9446,307.7852 188.06054,307.56447 188.20888,307.34548 C 188.79605,306.42402 189.61958,305.65323 190.67951,305.03305 C 191.7394,304.41293 192.87321,304.09058 194.08093,304.06604 C 195.76804,304.11044 196.84178,304.6173 197.3021,305.58664 C 197.76239,306.556 197.81682,307.72155 197.46535,309.08331 L 195.29437,318.10875 L 197.32766,318.10875 L 199.54584,308.88709 z M 241.55393,298.62835 C 241.64186,298.24005 241.58302,297.91655 241.37744,297.65785 C 241.17183,297.39917 240.83793,297.26487 240.37574,297.25492 C 239.9213,297.26661 239.52057,297.40443 239.17355,297.66834 C 238.82651,297.93232 238.60334,298.25231 238.50399,298.62835 C 238.41782,299.01787 238.47963,299.34605 238.68943,299.61288 C 238.89919,299.87977 239.22788,300.01874 239.67546,300.02982 C 240.12846,300.024 240.52695,299.89553 240.8709,299.64442 C 241.21482,299.39334 241.4425,299.05465 241.55393,298.62835 L 241.55393,298.62835 z M 239.99092,302.94487 L 237.95763,302.94487 L 234.31012,318.10875 L 236.3434,318.10875 L 239.99092,302.94487 z M 286.91999,308.57877 C 287.33904,307.07804 287.27055,305.72096 286.71458,304.5075 C 286.15856,303.29408 284.66377,302.65174 282.23017,302.58049 C 281.34893,302.57992 280.42972,302.6862 279.4725,302.89932 C 278.51526,303.11248 277.59298,303.43598 276.70564,303.86984 L 276.99929,305.10314 C 277.72283,304.72534 278.48469,304.44388 279.28487,304.25875 C 280.08505,304.07366 280.86699,303.98139 281.6307,303.98195 C 283.05031,304.0126 284.00201,304.30949 284.48581,304.87266 C 284.96958,305.43586 285.1912,306.08158 285.15067,306.80981 C 285.11011,307.53807 285.01313,308.16509 284.85974,308.69089 C 281.38044,308.67513 278.63214,309.14812 276.61485,310.10987 C 274.59754,311.07164 273.36995,312.44857 272.93205,314.24069 C 272.67026,315.32333 272.8684,316.28334 273.52647,317.12071 C 274.18456,317.9581 275.37649,318.39955 277.1023,318.4451 C 278.46004,318.41882 279.66392,318.16305 280.71393,317.67779 C 281.76395,317.19254 282.58116,316.63545 283.16562,316.00654 L 283.264,316.00654 L 282.98791,318.10875 L 284.85721,318.10875 C 284.89766,317.5429 284.97722,316.95078 285.09593,316.33238 C 285.21461,315.71399 285.34842,315.10085 285.49739,314.49297 L 286.91999,308.57877 z M 283.80704,313.20361 C 283.67515,313.85412 283.11036,314.63428 282.11266,315.54406 C 281.11492,316.45385 279.66649,316.95371 277.76736,317.04364 C 276.85084,317.04772 276.12579,316.8013 275.59216,316.30435 C 275.05852,315.80742 274.90259,315.03544 275.12438,313.98843 C 275.43971,312.82816 276.10667,311.96583 277.12527,311.40143 C 278.14383,310.83705 279.32113,310.46885 280.65709,310.29687 C 281.99303,310.1249 283.29472,310.04738 284.56217,310.06432 L 283.80704,313.20361 z M 376.96986,296.83448 L 374.87097,296.83448 L 361.06302,318.10875 L 363.1291,318.10875 L 367.80081,310.82111 L 377.21294,310.82111 L 378.41152,318.10875 L 380.5432,318.10875 L 376.96986,296.83448 z M 368.66263,309.41965 L 373.19459,302.44035 C 373.61805,301.77058 374.01228,301.12006 374.37731,300.48881 C 374.7423,299.85758 375.08228,299.22809 375.39727,298.60032 L 375.49566,298.60032 C 375.52621,299.21174 375.5694,299.83889 375.6252,300.48179 C 375.68096,301.12474 375.75816,301.81496 375.85681,302.55246 L 377.02532,309.41965 L 368.66263,309.41965 z M 429.43244,308.91512 C 429.82384,307.11624 429.75919,305.75906 429.23849,304.8436 C 428.71774,303.92817 428.02196,303.31637 427.15112,303.0082 C 426.28024,302.70007 425.51531,302.5575 424.85632,302.58049 C 423.41454,302.60387 422.11612,302.90051 420.96103,303.47042 C 419.80593,304.04037 418.88527,304.74343 418.19904,305.57963 L 418.13344,305.57963 L 418.60324,302.94487 L 416.76672,302.94487 C 416.66182,303.52299 416.55198,304.1046 416.43721,304.6897 C 416.32242,305.27482 416.17933,305.9265 416.00794,306.64474 L 413.25039,318.10875 L 415.28367,318.10875 L 417.5423,308.71892 C 417.87499,307.46929 418.63663,306.38782 419.82718,305.47451 C 421.01771,304.56124 422.38046,304.08241 423.91542,304.03801 C 425.63399,304.08241 426.72516,304.59628 427.18895,305.57963 C 427.65269,306.56301 427.70478,307.74958 427.34523,309.13935 L 425.18772,318.10875 L 427.22101,318.10875 L 429.43244,308.91512 z M 468.6699,302.94487 L 465.78396,302.94487 L 465.45359,304.31831 L 468.33954,304.31831 L 466.09439,313.65209 C 465.7501,314.85618 465.73048,315.93764 466.03547,316.89648 C 466.34048,317.85532 467.37732,318.36218 469.14598,318.41707 C 469.68751,318.41531 470.17062,318.38378 470.59531,318.32247 C 471.01999,318.26115 471.38371,318.18056 471.6865,318.08072 L 471.81336,316.73531 C 471.56992,316.80713 471.2864,316.8667 470.9628,316.914 C 470.63919,316.96129 470.2575,316.98583 469.81779,316.98758 C 468.91118,316.97881 468.32734,316.70203 468.06622,316.15721 C 467.8051,315.61238 467.79667,314.8521 468.04094,313.87632 L 470.34003,304.31831 L 475.19368,304.31831 L 475.52405,302.94487 L 470.67039,302.94487 L 471.4862,299.55332 L 469.33738,300.16997 L 468.6699,302.94487 z M 514.39642,298.62835 C 514.48435,298.24005 514.42552,297.91655 514.21994,297.65785 C 514.01433,297.39917 513.68043,297.26487 513.21824,297.25492 C 512.76381,297.26661 512.36307,297.40443 512.01606,297.66834 C 511.66902,297.93232 511.44584,298.25231 511.3465,298.62835 C 511.26033,299.01787 511.32213,299.34605 511.53191,299.61288 C 511.74169,299.87977 512.07038,300.01874 512.51797,300.02982 C 512.97097,300.024 513.36946,299.89553 513.7134,299.64442 C 514.05732,299.39334 514.285,299.05465 514.39642,298.62835 L 514.39642,298.62835 z M 512.83342,302.94487 L 510.80014,302.94487 L 507.15262,318.10875 L 509.18591,318.10875 L 512.83342,302.94487 z M 550.10911,305.69174 L 550.60588,302.94487 L 548.73656,302.94487 C 548.60399,303.63803 548.45678,304.37496 548.29497,305.15569 C 548.13311,305.93644 547.9375,306.8065 547.70809,307.76592 L 543.71672,324.35929 L 545.75001,324.35929 L 547.81312,315.78231 L 547.87871,315.78231 C 548.26397,316.62904 548.90465,317.28305 549.80078,317.74436 C 550.69688,318.20568 551.76664,318.43925 553.01009,318.4451 C 555.10111,318.45211 557.07727,317.7864 558.93854,316.448 C 560.79976,315.10962 562.10119,313.05647 562.84285,310.28856 C 563.3624,307.98082 563.11651,306.12855 562.10521,304.73175 C 561.09384,303.33496 559.47627,302.61788 557.2525,302.58049 C 555.77367,302.58752 554.43987,302.86079 553.2511,303.40035 C 552.06228,303.93993 551.03683,304.70373 550.1747,305.69174 L 550.10911,305.69174 z M 549.40427,309.16738 C 549.68696,308.02053 550.45242,306.89468 551.70067,305.78986 C 552.94888,304.68505 554.5209,304.09175 556.41674,304.00998 C 558.31381,304.06489 559.61923,304.70489 560.333,305.93 C 561.04675,307.15512 561.19885,308.63601 560.78934,310.37265 C 560.3018,312.35398 559.39088,313.94815 558.05659,315.15515 C 556.72227,316.36216 555.07821,316.98232 553.12438,317.01561 C 551.45128,316.97531 550.21975,316.48831 549.42974,315.55457 C 548.63974,314.62085 548.39303,313.48216 548.6896,312.1385 L 549.40427,309.16738 z M 604.44529,302.58049 C 602.17443,302.59101 600.07539,303.28475 598.14819,304.66167 C 596.22095,306.03862 594.90704,308.03571 594.20643,310.65294 C 593.67222,313.08682 593.98966,314.98815 595.15874,316.3569 C 596.32781,317.72568 598.07478,318.42174 600.39966,318.4451 C 602.44988,318.46262 604.47942,317.82495 606.48823,316.53209 C 608.49702,315.23924 609.89137,313.18609 610.67131,310.37265 C 611.20101,308.03688 610.91237,306.16359 609.80535,304.75276 C 608.69829,303.34197 606.91162,302.61788 604.44529,302.58049 L 604.44529,302.58049 z M 608.585,310.45674 C 608.08975,312.36215 607.12329,313.92595 605.6856,315.14814 C 604.24787,316.37035 602.62013,317.00218 600.80234,317.04364 C 599.03923,316.99984 597.74437,316.37267 596.91779,315.16217 C 596.09122,313.95165 595.88285,312.42054 596.29274,310.56885 C 596.68045,308.90871 597.53031,307.41498 598.84232,306.08767 C 600.15431,304.76037 601.88772,304.05846 604.04259,303.98195 C 605.48415,304.01053 606.57232,304.36452 607.30713,305.04396 C 608.04189,305.72342 608.49727,306.55704 608.67327,307.5448 C 608.84923,308.53258 608.8198,309.50322 608.585,310.45674 L 608.585,310.45674 z M 652.06907,295.71331 L 650.0358,295.71331 L 644.64881,318.10875 L 646.68208,318.10875 L 652.06907,295.71331 z M 691.15732,298.62835 C 691.24523,298.24005 691.18641,297.91655 690.98083,297.65785 C 690.77521,297.39917 690.44132,297.26487 689.97912,297.25492 C 689.52469,297.26661 689.12396,297.40443 688.77694,297.66834 C 688.4299,297.93232 688.20673,298.25231 688.10738,298.62835 C 688.02121,299.01787 688.08302,299.34605 688.29281,299.61288 C 688.50258,299.87977 688.83126,300.01874 689.27885,300.02982 C 689.73185,300.024 690.13034,299.89553 690.47428,299.64442 C 690.8182,299.39334 691.04589,299.05465 691.15732,298.62835 L 691.15732,298.62835 z M 689.59431,302.94487 L 687.56102,302.94487 L 683.9135,318.10875 L 685.94679,318.10875 L 689.59431,302.94487 z M 735.37478,303.53349 C 734.96141,303.26081 734.44037,303.03541 733.8116,302.85728 C 733.18283,302.67919 732.45756,302.58693 731.63583,302.58049 C 729.89023,302.61438 728.43605,303.03015 727.27334,303.82779 C 726.11059,304.62548 725.38246,305.60183 725.08892,306.75687 C 724.8769,307.66666 725.07225,308.46783 725.67499,309.16038 C 726.27771,309.85295 727.24512,310.4439 728.57722,310.93323 C 729.7156,311.3531 730.5114,311.81674 730.96463,312.32419 C 731.41783,312.83164 731.54838,313.47047 731.35631,314.24069 C 731.16828,315.03078 730.68685,315.68596 729.91195,316.20625 C 729.13704,316.72655 728.08421,316.99633 726.75343,317.01561 C 725.96138,317.00218 725.25075,316.88888 724.62151,316.67574 C 723.9923,316.4626 723.47429,316.2302 723.0675,315.97851 L 722.0417,317.37998 C 722.56287,317.69298 723.18736,317.9429 723.91513,318.12977 C 724.64291,318.31663 725.44385,318.41239 726.31795,318.41707 C 728.1213,318.40714 729.66273,318.02057 730.94222,317.25736 C 732.22169,316.49414 733.04453,315.41384 733.41074,314.01646 C 733.66821,312.89763 733.48368,311.98902 732.85709,311.29062 C 732.23048,310.59222 731.2551,310.00594 729.93097,309.53177 C 728.85074,309.1201 728.07272,308.69615 727.59692,308.25994 C 727.12108,307.82374 726.97215,307.23863 727.15009,306.50461 C 727.31967,305.81088 727.74276,305.22227 728.41931,304.73875 C 729.09585,304.25526 729.97913,304.00299 731.06916,303.98195 C 731.90162,303.99774 732.58059,304.10635 733.10605,304.30779 C 733.63149,304.50928 734.02618,304.70899 734.29013,304.90692 L 735.37478,303.53349 z" style="text-align:start;line-height:100%;-inkscape-font-specification:Kozuka Gothic Pro L Light" font-size="18.44925308px" font-weight="300" font-family="Kozuka Gothic Pro L" fill="#fff"/><path d="M315.44525 36.092604L480.21263 36.092604 475.17239 57.336202 310.405 57.336202 315.44525 36.092604zM295.28411 121.06767L460.05149 121.06767 455.01125 142.31127 290.24386 142.31127 295.28411 121.06767z" fill="#bdbec2"/><path d="M374.13573 57.336381L538.9031 57.336381 533.86285 78.579981 369.09548 78.579981 374.13573 57.336381zM364.05516 99.823888L528.82253 99.823888 523.78229 121.06749 359.01492 121.06749 364.05516 99.823888zM353.9746 142.3114L518.74197 142.3114 513.70172 163.555 348.93435 163.555 353.9746 142.3114z" fill="#fff"/><path d="M 305.36467,78.580158 L 470.13206,78.580158 L 465.09181,99.823758 L 300.32443,99.823758 L 305.36467,78.580158 z" fill="#bdbec2"/></svg>